<svg version="1.1" id="Layer_1" xmlns="http://www.w3.org/2000/svg" xmlns:xlink="http://www.w3.org/1999/xlink" x="0px" y="0px"
	 width="100%" viewBox="0 0 499 547" enable-background="new 0 0 499 547" xml:space="preserve">
<path fill="#9753b9" opacity="1.000000" stroke="none" 
	d="
M500.000000,132.000000 
	C500.000000,139.354248 500.000000,146.708496 499.674133,154.193314 
	C498.566589,157.240051 497.361115,160.115143 497.073944,163.079224 
	C495.523590,179.083237 490.254608,193.965424 483.857727,208.542053 
	C481.319275,214.326447 477.969360,220.040741 479.086029,226.641037 
	C480.187225,233.149612 481.386841,239.755676 483.601318,245.940125 
	C489.940491,263.643921 496.475342,281.352997 497.810455,300.226105 
	C499.076996,318.129700 497.745758,335.948059 492.356781,353.320526 
	C487.875092,367.768036 481.931061,381.485840 474.200104,394.489014 
	C465.766876,408.673401 457.673981,423.059875 449.275940,437.265564 
	C442.687805,448.409760 435.613373,459.271576 429.199677,470.512573 
	C420.238647,486.218262 408.460999,499.217926 393.800903,509.752045 
	C381.757324,518.406006 368.796478,525.479309 354.902588,530.361633 
	C341.687012,535.005615 328.095703,538.844360 314.399323,541.773254 
	C303.266510,544.153992 291.728943,544.626953 280.387512,546.075989 
	C279.523834,546.186340 278.792725,547.334351 278.000000,548.000000 
	C262.979095,548.000000 247.958206,548.000000 232.807892,547.668457 
	C231.678650,546.892273 230.711685,546.166931 229.674042,546.045410 
	C215.094070,544.339050 201.084656,540.515747 187.805252,534.310425 
	C162.406708,522.441895 141.213776,505.076935 122.653885,484.223175 
	C108.834106,468.695374 100.775169,450.258545 95.088608,430.665070 
	C89.109138,410.062347 84.449081,389.028320 73.096046,370.388245 
	C69.986870,365.283447 67.763336,359.551880 64.167862,354.845551 
	C47.285648,332.747223 31.583445,309.980835 21.002316,284.057678 
	C12.800643,263.964081 5.619708,243.581696 2.919818,221.881912 
	C2.833202,221.185760 1.664348,220.624268 1.000001,220.000000 
	C1.000000,211.312439 1.000000,202.624863 1.303746,193.804764 
	C2.537826,190.482681 3.588420,187.322586 4.377885,184.098541 
	C7.993185,169.334259 16.582747,157.071823 24.173273,144.285690 
	C31.537977,131.879959 41.803410,122.277557 52.987240,113.459602 
	C56.280575,110.862946 58.926548,107.390892 62.360611,105.036903 
	C74.270744,96.872726 86.305771,88.881531 98.461998,81.087669 
	C117.706032,68.749481 137.619415,57.935829 159.597092,50.841301 
	C175.539490,45.694992 190.795929,38.441368 206.413223,32.266453 
	C235.571655,20.737486 264.855865,9.574152 295.623352,2.912688 
	C296.193542,2.789232 296.545990,1.659969 297.000000,1.000002 
	C307.687561,1.000000 318.375122,1.000000 329.187836,1.350439 
	C330.991730,2.133974 332.665619,2.918243 334.350037,2.941531 
	C343.341278,3.065842 352.351379,2.668461 361.322998,3.106341 
	C368.305511,3.447138 375.390350,4.122353 382.168457,5.742187 
	C399.169434,9.805089 414.372101,18.206837 429.327576,26.914694 
	C444.572693,35.791218 458.354004,46.653694 469.061584,60.769348 
	C475.301453,68.995255 481.250763,77.682999 485.748047,86.932510 
	C492.409882,100.633911 495.697174,115.559273 498.099396,130.615158
	C498.186920,131.163895 499.342285,131.542252 500.000000,132.000000
M368.057587,122.576294
	C368.755615,120.627167 369.453644,118.678040 370.151642,116.728920
	C369.820251,116.603722 369.488892,116.478531 369.157501,116.353333
	C363.587799,127.299622 358.018127,138.245911 352.448425,149.192200
	C353.038727,149.495697 353.628998,149.799194 354.219269,150.102692
	C358.795807,141.184952 363.372314,132.267227 368.057587,122.576294
M357.467468,178.028809
	C356.233124,181.438553 354.998779,184.848297 353.764404,188.258041
	C354.108490,188.382568 354.452545,188.507080 354.796600,188.631607
	C358.363312,180.024094 361.930023,171.416580 365.496735,162.809067
	C365.032654,162.620071 364.568604,162.431076 364.104553,162.242065
	C362.050934,167.291199 359.997314,172.340332 357.467468,178.028809
M450.007721,179.610901
	C450.671600,175.350967 451.335480,171.091034 451.999359,166.831100
	C451.520966,166.770172 451.042572,166.709244 450.564178,166.648315
	C449.530609,173.738159 448.497009,180.828003 447.463409,187.917831
	C447.899841,187.983841 448.336304,188.049835 448.772766,188.115829
	C449.182129,185.576233 449.591522,183.036652 450.007721,179.610901
z"/>
</svg>